#!OML:ASF E:\Mandelcareful walks\Project 1\Capture day 1\Session 1\Subject1.ASF
:FULLY-SPECIFIED
:DEGREES
304
root 5.42852 16.6419 -0.472247 -200.345 -85.7118 206.722
lowerback 9.81414 0.804632 0.132466
upperback 3.2431 1.00477 1.46072
thorax -2.15691 0.446488 1.32255
lowerneck -23.7217 6.44236 2.87814
upperneck 22.4669 9.39895 -5.4333
head 11.6859 3.7101 -0.897058
rclavicle -1.16786e-014 7.55382e-015
rhumerus -27.8682 8.02385 -87.3427
rradius 46.8078
rwrist -12.2248
rhand -8.47011 -34.034
rfingers 7.12502
rthumb 17.4565 -63.2702
lclavicle -1.16786e-014 7.55382e-015
lhumerus -30.6802 -44.314 105.848
lradius 61.1326
lwrist 6.50891
lhand -8.01123 -7.86136
lfingers 7.12502
lthumb 17.898 21.3351
rfemur -6.17727 -3.79411 8.64547
rtibia 8.25864
rfoot -5.09752 -21.1519
rtoes -6.98591
lfemur -15.6809 5.49849 -3.85286
ltibia 30.4022
lfoot -15.3426 9.22102
ltoes -12.8557
305
root 5.39748 16.6478 -0.531242 -200.932 -85.7613 207.246
lowerback 9.02174 0.663369 0.124658
upperback 3.30022 0.813682 1.4766
thorax -1.65777 0.352235 1.37166
lowerneck -23.4139 5.30806 1.90023
upperneck 23.3174 7.96295 -4.62551
head 11.7996 3.06392 -0.699584
rclavicle 4.96962e-017 -1.31198e-014
rhumerus -27.5863 7.52615 -86.9149
rradius 45.6416
rwrist -12.2465
rhand -8.43892 -33.4107
rfingers 7.12502
rthumb 17.4865 -62.6442
lclavicle 4.96962e-017 -1.31198e-014
lhumerus -30.6696 -44.4507 105.865
lradius 60.921
lwrist 6.63446
lhand -8.1431 -8.05954
lfingers 7.12502
lthumb 17.7711 21.1484
rfemur -5.71763 -3.75299 8.86654
rtibia 7.95411
rfoot -5.50959 -21.171
rtoes -6.12301
lfemur -14.9911 5.09599 -3.65434
ltibia 29.5924
lfoot -15.1315 9.75374
ltoes -13.3387
306
root 5.37731 16.6516 -0.588562 -201.517 -85.7501 207.798
lowerback 8.45873 0.55937 0.0658863
upperback 3.23144 0.675151 1.56789
thorax -1.41702 0.28501 1.51636
lowerneck -22.566 3.84925 0.293082
upperneck 23.5712 6.13839 -3.45059
head 11.5633 2.26034 -0.331185
rclavicle -3.72721e-015 -1.94809e-014
rhumerus -27.4389 7.11414 -86.3997
rradius 44.6498
rwrist -12.2754
rhand -8.70129 -32.6344
rfingers 7.12502
rthumb 17.234 -61.8902
lclavicle -3.72721e-015 -1.94809e-014
lhumerus -30.8543 -44.6123 106.102
lradius 60.7316
lwrist 6.88834
lhand -8.06154 -8.30677
lfingers 7.12502
lthumb 17.8496 20.8941
rfemur -5.43764 -3.66107 9.12159
rtibia 7.75878
rfoot -5.88713 -21.1842
rtoes -5.07705
lfemur -14.3928 4.69166 -3.42142
ltibia 28.8083
lfoot -14.9182 10.2775
ltoes -13.4733
307
root 5.36165 16.6654 -0.645878 -203.393 -85.5964 209.564
lowerback 8.09627 0.469236 0.120485
upperback 3.18039 0.56214 1.64762
thorax -1.2669 0.2299 1.58019
lowerneck -21.3051 2.31056 -1.25533
upperneck 23.1899 4.13942 -2.31976
head 11.0697 1.39096 -0.00448586
rclavicle 3.47873e-016 1.15295e-014
rhumerus -27.2831 6.71317 -86.0224
rradius 43.782
rwrist -12.0005
rhand -8.87106 -32.5334
rfingers 7.12502
rthumb 17.0706 -61.8035
lclavicle 3.47873e-016 1.15295e-014
lhumerus -31.0386 -44.7756 106.152
lradius 60.617
lwrist 6.83798
lhand -7.88829 -8.54675
lfingers 7.12502
lthumb 18.0163 20.6388
rfemur -5.32069 -3.45006 9.57426
rtibia 7.88342
rfoot -6.2737 -21.243
rtoes -4.38255
lfemur -13.7887 4.2737 -2.99896
ltibia 28.0421
lfoot -14.7143 10.7943
ltoes -13.6707
308
root 5.3455 16.6778 -0.700016 -204.082 -85.4885 210.165
lowerback 7.89408 0.341137 0.0708929
upperback 3.12512 0.391114 1.71679
thorax -1.20837 0.145169 1.69529
lowerneck -20.1324 0.818607 -2.80332
upperneck 22.389 2.23837 -1.38323
head 10.5096 0.538304 0.289171
rclavicle -3.42904e-015 -6.75868e-015
rhumerus -27.2035 6.48185 -85.6772
rradius 43.2173
rwrist -11.6333
rhand -8.90593 -32.8382
rfingers 7.12502
rthumb 17.037 -62.1111
lclavicle -3.42904e-015 -6.75868e-015
lhumerus -31.2327 -44.6985 106.14
lradius 60.6628
lwrist 6.40854
lhand -7.99131 -8.78872
lfingers 7.12502
lthumb 17.9172 20.4059
rfemur -5.21317 -3.25999 9.89892
rtibia 7.98012
rfoot -6.55118 -21.282
rtoes -4.13764
lfemur -13.253 3.83368 -2.69979
ltibia 27.3281
lfoot -14.5412 11.3189
ltoes -14.0378
309
root 5.32543 16.6824 -0.748346 -204.335 -85.4693 210.327
lowerback 7.85007 0.214698 0.0472956
upperback 3.12631 0.221693 1.80639
thorax -1.17822 0.0595615 1.81597
lowerneck -19.6677 -0.681503 -4.52971
upperneck 21.4511 0.418407 -0.444441
head 10.0943 -0.297434 0.643192
rclavicle -3.52843e-015 5.96354e-016
rhumerus -27.1405 6.20982 -85.168
rradius 42.9158
rwrist -11.4496
rhand -9.11501 -32.6909
rfingers 7.12502
rthumb 16.8357 -61.981
lclavicle -3.52843e-015 5.96354e-016
lhumerus -31.2996 -44.6699 106.135
lradius 60.8173
lwrist 6.23125
lhand -8.05067 -8.68133
lfingers 7.12502
lthumb 17.8601 20.5185
rfemur -4.98714 -3.15032 10.0625
rtibia 7.92227
rfoot -6.66683 -21.2566
rtoes -4.03258
lfemur -12.6781 3.26072 -2.51207
ltibia 26.699
lfoot -14.5409 11.8786
ltoes -13.7136
310
root 5.30394 16.6819 -0.794782 -205.081 -85.3785 210.952
lowerback 7.68286 0.104909 0.0987657
upperback 3.27894 0.0707912 1.87988
thorax -0.923552 -0.019821 1.87535
lowerneck -19.4899 -2.13369 -5.99302
upperneck 20.3262 -1.3876 0.51742
head 9.72202 -1.09924 0.96794
rclavicle 5.1684e-015 1.11319e-014
rhumerus -27.0413 5.78872 -84.7091
rradius 42.8599
rwrist -11.5275
rhand -9.31684 -32.4911
rfingers 7.12502
rthumb 16.6414 -61.7977
lclavicle 5.1684e-015 1.11319e-014
lhumerus -31.1082 -44.4436 105.87
lradius 60.9083
lwrist 6.42194
lhand -7.81671 -8.81928
lfingers 7.12502
lthumb 18.0852 20.3599
rfemur -4.79434 -2.98727 10.2789
rtibia 7.97055
rfoot -6.82476 -21.2411
rtoes -3.96504
lfemur -12.0347 2.74696 -2.25676
ltibia 26.1382
lfoot -14.7047 12.3503
ltoes -12.9302
311
root 5.2887 16.6784 -0.841719 -205.759 -85.1658 211.595
lowerback 7.38787 0.0243548 0.126144
upperback 3.45556 -0.045723 1.96628
thorax -0.574443 -0.0829737 1.95718
lowerneck -19.4392 -3.49091 -6.83525
upperneck 19.4567 -3.08229 0.845244
head 9.48849 -1.88638 0.983655
rclavicle -3.37934e-015 9.93923e-016
rhumerus -27.0017 5.46571 -84.3687
rradius 42.9944
rwrist -11.6909
rhand -9.54215 -32.7684
rfingers 7.12502
rthumb 16.4245 -62.0931
lclavicle -3.37934e-015 9.93923e-016
lhumerus -30.9736 -43.7017 105.58
lradius 60.9749
lwrist 6.71493
lhand -7.83064 -9.46041
lfingers 7.12502
lthumb 18.0718 19.72
rfemur -4.80959 -2.72403 10.6121
rtibia 8.14476
rfoot -7.07315 -21.2651
rtoes -3.77699
lfemur -11.5493 2.45134 -1.91348
ltibia 25.6354
lfoot -14.8296 12.8508
ltoes -12.7786
312
root 5.28309 16.6811 -0.886196 -204.83 -84.9456 210.787
lowerback 7.31209 -0.0301112 0.00703194
upperback 3.41043 -0.123957 2.05547
thorax -0.575893 -0.123253 2.12206
lowerneck -19.4355 -4.83192 -7.85196
upperneck 18.8041 -4.77931 1.5466
head 9.37541 -2.65075 1.15346
rclavicle -2.18663e-015 -3.18055e-015
rhumerus -27.2141 5.17814 -84.0232
rradius 43.2217
rwrist -11.6574
rhand -9.51566 -33.1686
rfingers 7.12502
rthumb 16.45 -62.4911
lclavicle -2.18663e-015 -3.18055e-015
lhumerus -31.2462 -42.6142 105.597
lradius 60.9553
lwrist 6.95663
lhand -8.31862 -9.95853
lfingers 7.12502
lthumb 17.6022 19.2647
rfemur -5.13469 -2.42248 10.8543
rtibia 8.44042
rfoot -7.21639 -21.3221
rtoes -3.71849
lfemur -11.3155 2.20049 -1.69449
ltibia 25.1634
lfoot -14.861 13.6206
ltoes -13.394
313
root 5.27632 16.6883 -0.92478 -203.311 -84.7619 209.421
lowerback 7.45995 -0.106791 -0.130447
upperback 3.1239 -0.218964 2.12632
thorax -0.948679 -0.165247 2.28214
lowerneck -19.3257 -6.05735 -8.93645
upperneck 18.6107 -6.36647 2.4654
head 9.43872 -3.35571 1.41725
rclavicle -2.93207e-015 2.18663e-015
rhumerus -27.794 4.8092 -83.7233
rradius 43.4153
rwrist -11.8217
rhand -9.38017 -33.2514
rfingers 7.12502
rthumb 16.5805 -62.5631
lclavicle -2.93207e-015 2.18663e-015
lhumerus -31.9495 -41.4389 105.943
lradius 60.6519
lwrist 7.38779
lhand -9.04147 -10.2102
lfingers 7.12502
lthumb 16.9065 19.0739
rfemur -5.58736 -2.14042 10.962
rtibia 8.88545
rfoot -7.28455 -21.4173
rtoes -4.39472
lfemur -11.0855 2.05482 -1.60478
ltibia 24.6736
lfoot -14.8203 14.2165
ltoes -14.3614
